#N canvas 222 502 1118 625 10;
#N canvas 366 96 1089 858 __make_inlets 0;
#X obj 227 17 inlet;
#X obj 616 164 canvasindex;
#X obj 582 319 f \$1;
#X obj 596 349 until;
#X obj 332 480 f;
#X msg 796 242 1;
#X obj 576 221 t f f;
#X obj 329 18 inlet;
#X obj 10 360 f;
#X obj 14 133 f \$1;
#X obj 11 263 until;
#X obj 347 621 pack f f f;
#X obj 367 580 + 1;
#X msg 845 242 200;
#X obj 9 217 expr 3*$f1 + 2;
#X obj 25 58 t b;
#X obj 329 72 t b b b b b;
#X msg 9 412 \; pd-__merge_harmonics~.pd delete \$1;
#X obj 770 139 t b b b b;
#X obj 903 451 t f f;
#X obj 636 412 f;
#X text 4 34 BEFORE SAVING, f 16;
#X text 460 51 INIT;
#X obj 898 181 f \$2;
#X obj 375 221 t b b;
#X obj 746 288 f;
#X obj 728 331 t f f;
#X obj 340 311 t b b;
#X obj 330 357 f \$1;
#X obj 545 281 t b b;
#X obj 640 434 t f f;
#X obj 330 412 until;
#X obj 385 37 bng 15 250 50 0 empty empty empty 17 7 0 10 -262144 -1
-1;
#X obj 544 576 pack f f;
#X msg 677 566 \; pd-__merge_harmonics~.pd obj \$1 400 inlet~ \; pd-__merge_harmonics~.pd
obj \$1 450 *~;
#X msg 551 653 \; pd-__merge_harmonics~.pd obj \$1 350 r \$2-level_harmonics
;
#X obj 661 411 + 50;
#X obj 541 449 f;
#X obj 328 381 t f f;
#X obj 367 480 + 2;
#X obj 429 467 expr $f1*2 + 1;
#X obj 354 534 t f f f;
#X msg 348 779 \; pd-__merge_harmonics~.pd connect \$1 0 \$2 0 \; pd-__merge_harmonics~.pd
connect \$2 1 \$3 0;
#X obj 107 53 bng 15 250 50 0 empty empty empty 17 7 0 10 -262144 -1
-1;
#X connect 0 0 16 0;
#X connect 1 1 6 0;
#X connect 2 0 3 0;
#X connect 3 0 20 0;
#X connect 4 0 41 0;
#X connect 6 0 8 1;
#X connect 6 1 4 1;
#X connect 7 0 15 0;
#X connect 8 0 17 0;
#X connect 9 0 14 0;
#X connect 10 0 8 0;
#X connect 11 0 42 0;
#X connect 12 0 11 1;
#X connect 13 0 25 0;
#X connect 14 0 10 0;
#X connect 15 0 9 0;
#X connect 16 3 24 0;
#X connect 16 4 18 0;
#X connect 18 0 1 0;
#X connect 18 1 5 0;
#X connect 18 2 13 0;
#X connect 18 3 23 0;
#X connect 19 1 33 1;
#X connect 20 0 30 0;
#X connect 23 0 19 0;
#X connect 24 0 27 0;
#X connect 24 1 29 0;
#X connect 25 0 26 0;
#X connect 26 0 37 1;
#X connect 26 1 20 1;
#X connect 27 0 28 0;
#X connect 28 0 38 0;
#X connect 29 0 37 0;
#X connect 29 1 2 0;
#X connect 30 0 34 0;
#X connect 30 1 36 0;
#X connect 31 0 4 0;
#X connect 32 0 16 0;
#X connect 33 0 35 0;
#X connect 36 0 20 1;
#X connect 37 0 33 0;
#X connect 38 0 31 0;
#X connect 38 1 40 0;
#X connect 39 0 4 1;
#X connect 40 0 11 2;
#X connect 41 0 11 0;
#X connect 41 1 12 0;
#X connect 41 2 39 0;
#X connect 43 0 15 0;
#X restore 47 75 pd __make_inlets;
#X obj 196 73 initbang;
#X obj 0 400 inlet~;
#X obj 0 450 *~;
