#N canvas 1440 31 468 1007 12;
#X obj 369 9 loadbang;
#X obj 382 87 inlet~;
#X obj 203 421 outlet~;
#X obj 216 10 inlet;
#X obj 287 7 inlet;
#X msg 284 49 envelope adsr 64 1;
#X obj 480 300 throw~ \$0-out;
#X obj 200 360 catch~ \$0-out;
#X obj 300 161 ../cantina_plugin/build/bindings/pd/externals/cantina~
\$1;
#X obj 359 408 outlet;
#X connect 0 0 5 0;
#X connect 1 0 8 0;
#X connect 1 0 8 1;
#X connect 3 0 8 2;
#X connect 4 0 8 3;
#X connect 5 0 8 0;
#X connect 7 0 2 0;
#X connect 8 0 9 0;
#X connect 8 1 6 0;
#X connect 8 2 6 0;
#X connect 8 3 6 0;
#X connect 8 4 6 0;
#X connect 8 5 6 0;
#X connect 8 6 6 0;
#X connect 8 7 6 0;
#X connect 8 8 6 0;
#X connect 8 9 6 0;
#X connect 8 10 6 0;
