#N canvas 263 360 1395 720 12;
#X obj 369 9 loadbang;
#X obj 130 8 inlet~;
#X obj 51 349 outlet~;
#X obj 195 350 outlet~;
#X obj 216 10 inlet;
#X obj 296 8 inlet;
#X obj 135 204 expr~ $v1 + $v2 + $v3 + $v4 + $v5 + $v6 + $v7 + $v8
+ $v9 + $v10, f 64;
#X obj 253 284 unpack_output_note;
#X obj 111 111 ../cantina_pd/externals/cantina~ \$1, f 47;
#X obj 117 348 outlet;
#X msg 223 63 envelope adsr 64 1;
#X connect 0 0 10 0;
#X connect 1 0 8 0;
#X connect 4 0 8 1;
#X connect 5 0 8 2;
#X connect 6 0 3 0;
#X connect 8 0 2 0;
#X connect 8 1 7 0;
#X connect 8 1 9 0;
#X connect 8 2 6 0;
#X connect 8 4 6 1;
#X connect 8 6 6 2;
#X connect 8 8 6 3;
#X connect 8 10 6 4;
#X connect 8 12 6 5;
#X connect 8 14 6 6;
#X connect 8 16 6 7;
#X connect 8 18 6 8;
#X connect 8 20 6 9;
#X connect 10 0 8 0;
