#N canvas 960 60 960 995 12;
#X obj 369 9 loadbang;
#X obj 60 0 inlet~;
#X obj 200 400 outlet~;
#X obj 216 10 inlet;
#X obj 296 8 inlet;
#X msg 223 63 envelope adsr 64 1;
#X obj 300 160 ../build/bindings/pd/externals/cantina~ \$1, f 47;
#X obj 480 300 throw~ \$0-out;
#X obj 200 360 catch~ \$0-out;
#X obj 340 400 outlet~;
#X obj 420 400 outlet~;
#X obj 280 400 outlet~;
#X connect 0 0 5 0;
#X connect 1 0 6 0;
#X connect 1 0 6 1;
#X connect 1 0 7 0;
#X connect 3 0 6 2;
#X connect 4 0 6 3;
#X connect 5 0 6 0;
#X connect 6 0 9 0;
#X connect 6 1 10 0;
#X connect 6 2 7 0;
#X connect 6 3 7 0;
#X connect 6 4 7 0;
#X connect 6 5 7 0;
#X connect 6 6 7 0;
#X connect 6 7 7 0;
#X connect 6 8 7 0;
#X connect 6 9 7 0;
#X connect 6 10 7 0;
#X connect 6 11 7 0;
#X connect 8 0 2 0;
#X connect 8 0 11 0;
