#N canvas 472 177 1395 710 10;
#X obj 654 413 vsl 80 160 0 1 0 0 empty empty master 0 10 0 14 -1 -4034
-4034 12720 1;
#X msg 717 291 0.8;
#X obj 767 -5 loadbang;
#X obj 738 412 vsl 80 160 0 1 0 0 empty empty harmonic 0 10 0 14 -4034
-1 -1 7950 1;
#X obj 57 889 +~;
#X msg 913 301 0.1;
#X msg 959 298 0.02;
#X msg 400 707 wet \$1;
#X msg 395 729 dry 1 - \$1;
#X msg 398 686 damping \$1;
#X msg 401 666 width \$1;
#X msg 404 645 roomsize \$1;
#X obj 138 480 *~;
#X obj 206 483 *~;
#X obj 239 481 *~;
#X obj 175 481 *~;
#X obj 272 480 *~;
#X obj 829 449 hsl 160 40 0 1 0 0 empty empty width 90 10 0 14 -86853
-1 -262144 1590 1;
#X obj 828 490 hsl 160 40 0 1 0 0 empty empty damping 90 10 0 14 -4032
-1 -1 318 1;
#X obj 828 531 hsl 160 40 0 1 0 0 empty empty prop_wet 90 10 0 14 -262144
-1 -1 2385 1;
#X obj 829 408 hsl 160 40 0 1 0 0 empty empty roomsize 90 10 0 14 -260097
-1 -262144 2385 1;
#X obj 1311 247 cnv 15 100 60 empty empty empty 20 12 0 14 -233017
-66577 0;
#X obj 1012 673 s roomsize_reverb_\$0;
#X obj 1011 696 s width_reverb_\$0;
#X obj 1010 716 s damping_reverb_\$0;
#X obj 1010 738 s wet_reverb_\$0;
#X obj 474 672 r roomsize_reverb_\$0;
#X obj 474 692 r width_reverb_\$0;
#X obj 473 713 r damping_reverb_\$0;
#X obj 473 734 r wet_reverb_\$0;
#X obj 130 8 inlet~;
#X obj 54 925 outlet~;
#X obj 153 928 outlet~;
#X obj 148 882 +~;
#X obj 216 10 inlet;
#X obj 296 8 inlet;
#X obj 47 506 *~;
#X obj 148 823 reverb/freeverb~;
#X obj 310 475 *~;
#X obj 378 478 *~;
#X obj 411 476 *~;
#X obj 341 480 *~;
#X obj 444 475 *~;
#X obj 1004 61 catch~ \$0-sum_harmonics;
#X obj 706 644 *;
#X obj 831 607 t b f;
#X obj 723 583 expr 1 - $f1;
#X obj 706 617 t b f;
#X obj 817 637 *;
#X obj 1005 37 throw~ \$0-sum_harmonics;
#X obj 125 506 expr~ $v1 + $v2 + $v3 + $v4 + $v5 + $v6 + $v7 + $v8
+ $v9 + $v10, f 64;
#X obj 385 228 r \$0-level_harmonics;
#X obj 818 679 s \$0-level_harmonics;
#X obj 701 676 s \$0-level_seed;
#X obj 90 394 r \$0-level_seed;
#X obj 42 780 reverb/freeverb~;
#X msg 875 298 0.15;
#X msg 1002 296 0.15;
#X msg 753 305 0.5;
#X msg 223 63 controller damper 64 1;
#X obj 620 17 unpack 0 0 0;
#X obj 624 96 pack 0 0 0;
#X obj 628 144 route 1;
#X obj 679 61 / 127;
#X obj 998 425 vsl 80 90 0 1 0 0 empty empty saturation 0 10 0 14 -258113
-1 -1 0 1;
#X msg 1067 297 0;
#X obj 626 182 route 14 15 16 17 18;
#X obj 179 548 r sat_amount_\$0;
#X obj 989 630 s sat_amount_\$0;
#X obj 136 290 unpack_output_note;
#X obj 75 120 ../cantina_pd/externals/cantina~ \$1, f 47;
#X connect 0 0 44 0;
#X connect 0 0 48 0;
#X connect 1 0 0 0;
#X connect 2 0 56 0;
#X connect 2 0 5 0;
#X connect 2 0 6 0;
#X connect 2 0 57 0;
#X connect 2 0 59 0;
#X connect 2 0 58 0;
#X connect 2 0 65 0;
#X connect 2 0 1 0;
#X connect 3 0 46 0;
#X connect 3 0 45 0;
#X connect 4 0 31 0;
#X connect 5 0 17 0;
#X connect 6 0 18 0;
#X connect 7 0 37 0;
#X connect 7 0 55 0;
#X connect 8 0 37 0;
#X connect 8 0 55 0;
#X connect 9 0 37 0;
#X connect 9 0 55 0;
#X connect 10 0 37 0;
#X connect 10 0 55 0;
#X connect 11 0 37 0;
#X connect 11 0 55 0;
#X connect 12 0 50 0;
#X connect 13 0 50 2;
#X connect 14 0 50 3;
#X connect 15 0 50 1;
#X connect 16 0 50 4;
#X connect 17 0 23 0;
#X connect 18 0 24 0;
#X connect 19 0 25 0;
#X connect 20 0 22 0;
#X connect 26 0 11 0;
#X connect 27 0 10 0;
#X connect 28 0 9 0;
#X connect 29 0 7 0;
#X connect 29 0 8 0;
#X connect 30 0 70 0;
#X connect 33 0 32 0;
#X connect 34 0 70 1;
#X connect 35 0 70 2;
#X connect 36 0 55 0;
#X connect 36 0 55 1;
#X connect 37 0 4 1;
#X connect 37 1 33 1;
#X connect 38 0 50 5;
#X connect 39 0 50 7;
#X connect 40 0 50 8;
#X connect 41 0 50 6;
#X connect 42 0 50 9;
#X connect 44 0 53 0;
#X connect 45 0 48 0;
#X connect 45 1 48 1;
#X connect 46 0 47 0;
#X connect 47 0 44 0;
#X connect 47 1 44 1;
#X connect 48 0 52 0;
#X connect 50 0 37 0;
#X connect 50 0 37 1;
#X connect 51 0 42 1;
#X connect 51 0 40 1;
#X connect 51 0 39 1;
#X connect 51 0 41 1;
#X connect 51 0 38 1;
#X connect 51 0 16 1;
#X connect 51 0 14 1;
#X connect 51 0 13 1;
#X connect 51 0 15 1;
#X connect 51 0 12 1;
#X connect 54 0 36 1;
#X connect 55 0 4 0;
#X connect 55 1 33 0;
#X connect 56 0 20 0;
#X connect 57 0 19 0;
#X connect 58 0 3 0;
#X connect 59 0 70 0;
#X connect 60 0 63 0;
#X connect 60 1 61 1;
#X connect 60 2 61 0;
#X connect 61 0 62 0;
#X connect 62 0 66 0;
#X connect 63 0 61 2;
#X connect 64 0 68 0;
#X connect 65 0 64 0;
#X connect 66 0 0 0;
#X connect 66 1 3 0;
#X connect 66 2 19 0;
#X connect 66 3 20 0;
#X connect 70 0 36 0;
#X connect 70 1 60 0;
#X connect 70 2 12 0;
#X connect 70 3 69 0;
#X connect 70 4 15 0;
#X connect 70 6 13 0;
#X connect 70 8 14 0;
#X connect 70 10 16 0;
#X connect 70 12 38 0;
#X connect 70 14 41 0;
#X connect 70 16 39 0;
#X connect 70 18 40 0;
#X connect 70 20 42 0;
#X coords 0 -1 1 1 446 230 1 650 350;
