#N canvas 303 189 1397 740 10;
#X obj 33 17 inlet~;
#X obj 270 77 unpack f f;
#X floatatom 368 97 15 0 0 0 confidence - -;
#X floatatom 368 121 10 0 0 0 pitch - -;
#X obj 512 233 vsl 30 60 0 1 0 0 empty empty A 10 -9 0 14 -1 -258113
-258113 5900 1;
#X obj 550 235 vsl 30 60 0 1 0 0 empty empty D 10 -9 0 14 -1 -257985
-260097 4130 1;
#X obj 531 381 pack f f f f;
#X floatatom 680 235 5 0 0 0 - - -;
#X floatatom 680 259 5 0 0 0 - - -;
#X msg 485 45 1;
#X obj 552 4 loadbang;
#X msg 557 50 5;
#X msg 524 69 0.7;
#X msg 594 50 50;
#X floatatom 680 283 5 0 0 0 - - -;
#X msg 635 20 50;
#X obj 622 381 pack f;
#X obj 1029 6 cnv 15 180 114 empty empty empty 20 12 0 14 -233017 -66577
0;
#X obj 596 274 hsl 80 20 0 100 0 0 empty empty R 90 10 0 14 -1 -159808
-159808 3950 1;
#X obj 590 220 hsl 80 20 0 100 0 0 empty empty empty -2 -8 0 10 -1
-258113 -1 3950 1;
#X obj 589 251 hsl 80 20 0 100 0 0 empty empty empty -2 -8 0 10 -1
-257985 -1 3950 1;
#X obj 146 20 inlet;
#X obj 208 18 inlet;
#X msg 230 263 all \$1;
#X msg 266 289 all \$1, f 7;
#X obj 809 14 initbang;
#X obj 234 47 detect_pitch;
#X obj 509 329 t b f;
#X obj 545 329 t b f;
#X obj 581 329 t b f;
#X obj 322 141 > 0;
#X msg 315 264 all \$1;
#X obj 148 122 pack 0 0 0;
#X msg 390 312 all \$1;
#X msg 361 260 all \$1 \$2 \$3 \$4;
#X obj 900 93 f \$0;
#N canvas 438 408 854 672 __make_connect_outlets 1;
#X obj 261 13 inlet;
#X obj 297 208 canvasindex;
#X obj 422 402 until;
#X obj 398 229 f \$1;
#X obj 496 482 f;
#X obj 400 523 f;
#X obj 436 525 + 1;
#X obj 424 462 t b b;
#X obj 524 481 + 100;
#X obj 496 578 pack f f f;
#X obj 266 158 f \$1;
#X obj 256 401 until;
#X obj 265 492 f;
#X msg 375 161 1;
#X obj 441 22 inlet;
#X obj 377 118 t b b b;
#X obj 277 262 t f f;
#X obj 364 11 inlet;
#X obj 42 372 f;
#X obj 46 145 f \$1;
#X obj 39 255 until;
#X obj 270 629 pack f f f;
#X obj 297 491 + 3;
#X obj 298 605 + 1;
#X obj 326 601 + 2;
#X msg 426 160 200;
#X obj 64 482 f;
#X obj 55 527 t f f;
#X obj 91 542 + 1;
#X obj 52 571 pack f f;
#X obj 187 689 pack f f;
#X obj 231 664 f;
#X obj 486 528 t f f f;
#X obj 140 370 f;
#X obj 267 549 t f f f f f;
#X obj 186 656 + 100;
#X obj 62 503 + 3;
#X obj 57 70 t b;
#X obj 37 216 t b f;
#X obj 38 182 expr 3*$f1 + 1;
#X obj 613 514 t f f;
#X obj 291 56 t b b b b b;
#X obj 176 11 savebangs;
#X obj 305 14 initbang;
#X obj 240 99 print aaa;
#X obj 142 106 print bbb;
#X msg 503 622 \; pd-cantina_patch~.pd obj \$2 600 r~ \$3-__harmonic_\$1
\; pd-cantina_patch~.pd obj \$2 650 process_harmonic \; pd-cantina_patch~.pd
obj \$2 700 outlet~;
#X msg 504 688 \; pd-cantina_patch~.pd connect \$1 0 \$2 0 \; pd-cantina_patch~.pd
connect \$2 0 \$3 0;
#X msg 185 712 \; pd-cantina_patch~.pd obj \$1 600 r \$2-harmonic_notes
\; pd-cantina_patch~.pd obj \$1 700 outlet;
#X msg 54 759 \; pd-cantina_patch~.pd connect \$1 0 \$2 0;
#X msg 42 423 \; pd-cantina_patch~.pd delete \$1;
#X connect 1 1 16 0;
#X connect 2 0 7 0;
#X connect 3 0 2 0;
#X connect 4 0 32 0;
#X connect 5 0 6 0;
#X connect 5 0 9 0;
#X connect 6 0 5 1;
#X connect 7 0 5 0;
#X connect 7 1 4 0;
#X connect 8 0 4 1;
#X connect 9 0 46 0;
#X connect 10 0 11 0;
#X connect 11 0 12 0;
#X connect 12 0 34 0;
#X connect 13 0 5 1;
#X connect 14 0 40 0;
#X connect 15 0 1 0;
#X connect 15 1 13 0;
#X connect 15 2 25 0;
#X connect 16 0 18 1;
#X connect 16 1 12 1;
#X connect 18 0 50 0;
#X connect 19 0 39 0;
#X connect 20 0 18 0;
#X connect 21 0 47 0;
#X connect 22 0 12 1;
#X connect 23 0 21 1;
#X connect 24 0 21 2;
#X connect 25 0 4 1;
#X connect 26 0 36 0;
#X connect 27 0 29 0;
#X connect 27 1 28 0;
#X connect 28 0 29 1;
#X connect 29 0 49 0;
#X connect 30 0 48 0;
#X connect 31 0 30 1;
#X connect 32 0 33 1;
#X connect 32 1 9 1;
#X connect 32 2 8 0;
#X connect 33 0 35 0;
#X connect 34 0 26 1;
#X connect 34 1 21 0;
#X connect 34 2 23 0;
#X connect 34 3 24 0;
#X connect 34 4 22 0;
#X connect 35 0 30 0;
#X connect 36 0 27 0;
#X connect 37 0 19 0;
#X connect 38 0 1 0;
#X connect 38 1 20 0;
#X connect 39 0 38 0;
#X connect 40 0 31 0;
#X connect 40 1 9 2;
#X connect 41 0 26 0;
#X connect 41 1 33 0;
#X connect 41 2 10 0;
#X connect 41 3 3 0;
#X connect 41 4 15 0;
#X connect 42 0 37 0;
#X connect 42 0 45 0;
#X connect 42 1 41 0;
#X connect 42 1 44 0;
#X connect 43 0 41 0;
#X restore 836 155 pd __make_connect_outlets;
#X obj 889 10 savebangs;
#X obj 39 451 process_seed~ \$2;
#X obj 87 349 clone -s 1 __dynamic_harmonics$ \$1 \$2 \$0;
#X obj 143 55 poly \$1 1;
#X obj 41 696 outlet~;
#X obj 87 152 pack f f;
#X obj 83 216 s \$0-harmonic_notes;
#X msg 83 178 \$1 \$2;
#X obj 705 22 bng 50 250 50 0 empty empty INIT 17 7 0 30 -258113 -1
-1;
#X obj 964 12 bng 50 250 50 0 empty empty FREE 17 7 0 30 -1 -258113
-258113;
#X obj 1245 38 canvasdelete;
#X obj 824 76 t b b;
#X obj 863 53 t b b;
#X obj 966 86 t b b;
#X obj 1200 700 outlet;
#X connect 0 0 26 0;
#X connect 0 0 38 0;
#X connect 0 0 39 0;
#X connect 1 0 3 0;
#X connect 1 0 24 0;
#X connect 1 0 38 1;
#X connect 1 0 2 0;
#X connect 1 1 2 0;
#X connect 1 1 30 0;
#X connect 3 0 4 0;
#X connect 4 0 6 0;
#X connect 4 0 5 0;
#X connect 5 0 28 0;
#X connect 6 0 34 0;
#X connect 6 0 7 0;
#X connect 7 0 8 0;
#X connect 9 0 4 0;
#X connect 10 0 9 0;
#X connect 10 0 11 0;
#X connect 10 0 12 0;
#X connect 10 0 13 0;
#X connect 10 0 15 0;
#X connect 11 0 19 0;
#X connect 12 0 5 0;
#X connect 12 0 13 0;
#X connect 13 0 20 0;
#X connect 13 0 14 0;
#X connect 15 0 18 0;
#X connect 15 0 16 0;
#X connect 16 0 33 0;
#X connect 18 0 16 0;
#X connect 18 0 14 0;
#X connect 18 0 19 0;
#X connect 19 0 7 0;
#X connect 19 0 27 0;
#X connect 19 0 20 0;
#X connect 20 0 8 0;
#X connect 20 0 29 0;
#X connect 21 0 40 0;
#X connect 22 0 23 0;
#X connect 23 0 39 2;
#X connect 24 0 39 3;
#X connect 25 0 48 0;
#X connect 26 0 1 0;
#X connect 27 0 6 0;
#X connect 27 0 28 0;
#X connect 27 1 6 1;
#X connect 28 0 6 0;
#X connect 28 0 29 0;
#X connect 28 1 6 2;
#X connect 29 0 6 0;
#X connect 29 1 6 3;
#X connect 30 0 31 0;
#X connect 30 0 38 2;
#X connect 31 0 39 4;
#X connect 32 0 39 1;
#X connect 33 0 39 6;
#X connect 34 0 39 5;
#X connect 35 0 36 2;
#X connect 37 0 49 0;
#X connect 37 1 50 0;
#X connect 38 0 41 0;
#X connect 40 0 32 0;
#X connect 40 0 42 0;
#X connect 40 1 32 1;
#X connect 40 1 42 1;
#X connect 40 2 32 2;
#X connect 42 0 44 0;
#X connect 44 0 43 0;
#X connect 46 0 36 1;
#X connect 48 0 36 0;
#X connect 48 1 35 0;
#X connect 49 0 36 0;
#X connect 50 0 36 1;
#X coords 0 -1 1 1 399 102 1 503 206;
