#N canvas 237 477 449 300 12;
#X obj 72 33 inlet~;
#X obj 263 6 inlet;
#X obj 71 105 *~;
#X obj 83 134 wrap~;
#X obj 61 174 -~;
#X obj 80 216 /~;
#X obj 165 105 t f f;
#X obj 68 253 outlet~;
#X obj 244 122 print;
#X obj 230 56 * 9000, f 7;
#X connect 0 0 2 0;
#X connect 1 0 9 0;
#X connect 2 0 3 0;
#X connect 2 0 4 0;
#X connect 3 0 4 1;
#X connect 4 0 5 0;
#X connect 5 0 7 0;
#X connect 6 0 2 1;
#X connect 6 1 5 1;
#X connect 9 0 6 0;
#X connect 9 0 8 0;
