#N canvas 57 96 1863 984 10;
#X obj 73 350 *~;
#X obj 38 23 inlet~;
#X obj 87 28 inlet;
#X obj 72 187 harmonise~ \$2;
#X obj 151 299 smooth_env~;
#X obj 199 28 inlet;
#X obj 247 33 inlet;
#X obj 310 42 inlet;
#X obj 376 48 inlet;
#X obj 142 34 inlet;
#X obj 177 186 t b l;
#X obj 233 199 t b l;
#X obj 60 404 outlet~;
#X connect 0 0 12 0;
#X connect 1 0 3 0;
#X connect 2 0 3 1;
#X connect 3 0 0 0;
#X connect 3 1 4 0;
#X connect 4 0 0 1;
#X connect 5 0 3 3;
#X connect 6 0 3 4;
#X connect 7 0 10 0;
#X connect 8 0 11 0;
#X connect 9 0 3 2;
#X connect 10 0 4 0;
#X connect 10 1 4 1;
#X connect 11 0 4 0;
#X connect 11 1 4 2;
