#N canvas 416 493 1397 587 10;
#X obj 35 35 inlet~;
#X obj 54 207 *~;
#X obj 54 303 outlet~;
#X obj 120 303 outlet;
#N canvas 414 402 858 678 harmonise_raw~ 1;
#X obj 22 -2 inlet~;
#X obj 443 240 tgl 30 0 empty empty Open 0 -10 0 20 -1 -262144 -1 0
1;
#X obj 57 301 pitch_to_target~ \$1;
#X obj 54 76 unpack f f;
#X floatatom 451 291 5 0 0 0 - - -, f 5;
#X obj 47 420 outlet~;
#X obj 175 418 outlet;
#X obj 252 424 outlet;
#X obj 188 188 playable_velocity;
#X floatatom 52 116 5 0 0 0 - - -, f 5;
#X floatatom 97 116 5 0 0 0 - - -, f 5;
#X obj 258 75 t b f;
#X obj 168 115 t b f;
#X obj 122 -4 inlet;
#X obj 213 -5 inlet;
#X obj 164 -2 inlet;
#X obj 262 -3 inlet;
#X obj 356 104 tgl 15 0 empty empty empty 17 7 0 10 -262144 -1 -1 1
1;
#X floatatom 342 129 5 0 0 0 - - -, f 5;
#X floatatom 323 166 5 0 0 0 - - -, f 5;
#X obj 217 119 t b f;
#X connect 0 0 2 0;
#X connect 2 0 5 0;
#X connect 3 0 9 0;
#X connect 3 0 2 2;
#X connect 3 1 10 0;
#X connect 8 0 4 0;
#X connect 8 0 6 0;
#X connect 8 1 1 0;
#X connect 8 1 7 0;
#X connect 8 1 2 3;
#X connect 11 0 8 0;
#X connect 11 1 8 3;
#X connect 12 0 8 0;
#X connect 12 1 8 1;
#X connect 13 0 3 0;
#X connect 13 0 8 0;
#X connect 14 0 18 0;
#X connect 14 0 2 1;
#X connect 14 0 20 0;
#X connect 15 0 12 0;
#X connect 15 0 19 0;
#X connect 16 0 11 0;
#X connect 16 0 17 0;
#X connect 20 0 8 0;
#X connect 20 1 8 2;
#X restore 70 129 pd harmonise_raw~ \$1;
#X obj 82 35 inlet;
#X obj 125 33 inlet;
#X obj 174 35 inlet;
#X obj 219 35 inlet;
#X connect 0 0 4 0;
#X connect 1 0 2 0;
#X connect 4 0 1 0;
#X connect 4 1 1 1;
#X connect 4 2 3 0;
#X connect 5 0 4 1;
#X connect 6 0 4 2;
#X connect 7 0 4 3;
#X connect 8 0 4 4;
