#N canvas 531 361 932 957 10;
#X obj 20 457 outlet~;
#X obj 13 17 inlet~;
#X floatatom 184 268 5 0 0 0 - - -, f 5;
#X obj 210 305 hsl 256 30 0.12 12 1 0 empty empty empty -2 -8 0 10
-262144 -1 -1 11846 1;
#X obj 73 188 /;
#X obj 111 111 mtof;
#X obj 48 108 mtof;
#X obj 58 18 inlet;
#X obj 96 279 spigot 1;
#X obj 50 143 t b f;
#X obj 104 20 inlet;
#X obj 157 28 inlet;
#X floatatom 214 172 5 0 0 0 - - -, f 5;
#X floatatom 219 207 5 0 0 0 - - -, f 5;
#X text 234 17 input (left to right) \; 1) ~ \; 2) input pitch \; 3)
output pitch \; 4) is it playable? \;;
#X obj 37 338 to_pitch~ \$1;
#X obj 240 120 tgl 15 0 empty empty empty 17 7 0 10 -262144 -1 -1 0
1;
#X connect 1 0 15 0;
#X connect 2 0 3 0;
#X connect 4 0 2 0;
#X connect 4 0 8 0;
#X connect 5 0 4 0;
#X connect 6 0 9 0;
#X connect 7 0 6 0;
#X connect 7 0 13 0;
#X connect 8 0 15 1;
#X connect 9 0 4 0;
#X connect 9 1 4 1;
#X connect 10 0 5 0;
#X connect 10 0 12 0;
#X connect 11 0 8 1;
#X connect 11 0 16 0;
#X connect 15 0 0 0;
