#N canvas 847 301 932 984 10;
#X obj 338 218 > 0;
#X obj 193 620 outlet;
#X obj 419 134 t f f;
#X obj 370 139 t f f;
#X obj 302 219 > 0;
#X obj 178 127 > 0;
#X obj 302 321 &&;
#X obj 337 257 t b f;
#X obj 150 210 ||;
#X obj 177 283 select 1;
#X obj 216 311 bng 15 250 50 0 empty empty empty 17 7 0 10 -262144
-1 -1;
#X obj 170 151 t b f;
#X obj 284 114 t f f;
#X floatatom 218 375 5 0 0 0 - - -, f 5;
#X msg 218 338 0;
#X floatatom 174 315 5 0 0 0 - - -, f 5;
#X obj 167 372 max 0;
#X obj 170 430 > 0;
#X obj 168 401 t f f;
#X obj 300 479 &&;
#X obj 301 449 t b f;
#X obj 153 259 t b f;
#X obj 210 475 / 126;
#X obj 247 506 > 0;
#X obj 211 537 spigot 1;
#X obj 299 18 inlet;
#X obj 406 16 inlet;
#X obj 298 50 unpack f f;
#X obj 269 618 outlet;
#X text 12 65 Damper has to be received \; Not updated every frame
as an argument \;;
#X text 319 356 Only updateDelta velocity if it is not null. In case the
damper pedal is pressed.;
#X text 362 632 outlets (left to right) \; 1) rectified velocity (damper)
\; 2) is the harmonic playable? \;;
#X obj 358 18 inlet;
#X obj 123 124 == 127;
#X obj 107 148 change;
#X obj 470 15 inlet;
#X text 537 26 inlets (left to right) \; 1) pan tone of the last played
note \, velocity \; 2) controller data \; 3) tone of the played audio
input \; 4) input~ acceptable \;;
#X obj 307 566 &&;
#X obj 330 521 t b f;
#X floatatom 513 120 5 0 0 0 - - -, f 5;
#X floatatom 494 136 5 0 0 0 - - -, f 5;
#X floatatom 65 312 5 0 0 0 - - -, f 5;
#X connect 0 0 7 0;
#X connect 2 0 0 0;
#X connect 3 0 4 0;
#X connect 4 0 6 0;
#X connect 5 0 11 0;
#X connect 6 0 20 0;
#X connect 7 0 6 0;
#X connect 7 1 6 1;
#X connect 8 0 21 0;
#X connect 9 1 10 0;
#X connect 10 0 14 0;
#X connect 11 0 8 0;
#X connect 11 1 8 1;
#X connect 12 0 5 0;
#X connect 12 1 15 0;
#X connect 12 1 41 0;
#X connect 13 0 16 1;
#X connect 14 0 13 0;
#X connect 15 0 16 0;
#X connect 16 0 13 0;
#X connect 16 0 18 0;
#X connect 17 0 19 0;
#X connect 18 0 17 0;
#X connect 18 1 22 0;
#X connect 19 0 37 0;
#X connect 20 0 19 0;
#X connect 20 1 19 1;
#X connect 21 0 16 0;
#X connect 21 1 9 0;
#X connect 22 0 23 0;
#X connect 22 0 24 0;
#X connect 23 0 24 1;
#X connect 24 0 1 0;
#X connect 25 0 27 0;
#X connect 26 0 2 0;
#X connect 26 0 40 0;
#X connect 27 0 3 0;
#X connect 27 1 12 0;
#X connect 32 0 33 0;
#X connect 33 0 34 0;
#X connect 34 0 8 0;
#X connect 35 0 38 0;
#X connect 35 0 39 0;
#X connect 37 0 28 0;
#X connect 38 0 37 0;
#X connect 38 1 37 1;
