#N canvas 587 328 450 300 10;
#X obj 72 44 inlet~;
#X obj 139 43 inlet;
#X obj 208 54 inlet;
#X obj 71 111 robotise~ \$2;
#X obj 73 204 outlet~;
#X connect 0 0 3 0;
#X connect 1 0 3 1;
#X connect 2 0 3 2;
#X connect 3 0 4 0;
