#N canvas 189 494 1397 586 10;
#X obj 65 281 outlet~;
#X obj 111 24 inlet;
#X obj 32 22 inlet~;
#X obj 57 216 pitch_to_target~ \$1;
#X obj 122 127 correct_pitch;
#X msg 199 279 output (left to right) \; 1) ~ \;;
#X obj 211 81 inlet;
#X msg 184 11 input (left to right) \; 1) input signal~ \; 2) input
pitch \; 3) input playable? \;;
#X connect 1 0 4 0;
#X connect 1 0 3 1;
#X connect 2 0 3 0;
#X connect 3 0 0 0;
#X connect 4 0 3 2;
#X connect 6 0 3 3;
