#N canvas 359 300 450 300 10;
#X obj 53 60 int;
#X obj 105 130 -;
#X floatatom 135 149 5 0 0 0 - - -, f 5;
#X obj 102 168 > 0.5;
#X obj 85 215 +;
#X floatatom 33 245 5 0 0 0 - - -, f 5;
#X obj 119 102 t b f;
#X obj 102 190 t b f;
#X obj 69 5 inlet;
#X obj 85 271 outlet;
#X connect 0 0 6 0;
#X connect 0 0 4 0;
#X connect 1 0 2 0;
#X connect 1 0 3 0;
#X connect 3 0 7 0;
#X connect 4 0 5 0;
#X connect 4 0 9 0;
#X connect 6 0 1 0;
#X connect 6 1 1 1;
#X connect 7 0 4 0;
#X connect 7 1 4 1;
#X connect 8 0 0 0;
#X connect 8 0 1 0;
