#N canvas 57 96 450 300 10;
#X obj 96 56 inlet~;
#X obj 32 9 inlet;
#X msg 229 17 inlets \; 1) input signal (mono) \; 2) L/R (between 0
and 100) \;;
#X obj 121 151 *~;
#X obj 84 146 *~;
#X obj 32 28 expr $f1 / 100;
#X obj 156 32 expr 1 - $f1;
#X obj 77 207 outlet~;
#X obj 142 209 outlet~;
#X connect 0 0 4 0;
#X connect 0 0 3 0;
#X connect 1 0 5 0;
#X connect 3 0 8 0;
#X connect 4 0 7 0;
#X connect 5 0 6 0;
#X connect 5 0 4 0;
#X connect 6 0 3 1;
