#N canvas 275 461 1397 619 10;
#X obj 76 69 == 0;
#X obj 30 63 == 1;
#X obj 31 356 vline~;
#X obj 9 97 change;
#X obj 72 110 change;
#X obj 27 173 spigot;
#X obj 30 209 bng 15 250 50 0 empty empty empty 17 7 0 10 -262144 -1
-1;
#X obj 110 190 spigot;
#X obj 10 136 b;
#X obj 87 151 b;
#X obj 109 221 bng 15 250 50 0 empty empty empty 17 7 0 10 -262144
-1 -1;
#X obj 44 413 outlet~;
#X msg 26 297 0 \$1;
#X obj 210 382 snapshot~;
#X obj 270 167 unpack f f f f;
#X obj 191 23 inlet;
#X obj 147 12 inlet;
#X obj 93 9 inlet;
#X floatatom 158 425 5 0 0 0 - - -, f 5;
#X obj 21 266 f;
#X msg 87 302 0 0 \, \$1 \$2 \, \$3 \$4;
#X obj 235 259 pack f f f f;
#X obj 251 343 metro 10;
#X obj 229 297 tgl 15 0 empty empty empty 17 7 0 10 -262144 -1 -1 1
1;
#X connect 0 0 4 0;
#X connect 0 0 7 1;
#X connect 1 0 3 0;
#X connect 1 0 5 1;
#X connect 2 0 11 0;
#X connect 2 0 13 0;
#X connect 3 0 8 0;
#X connect 4 0 9 0;
#X connect 5 0 6 0;
#X connect 6 0 19 0;
#X connect 7 0 10 0;
#X connect 8 0 5 0;
#X connect 9 0 7 0;
#X connect 10 0 21 0;
#X connect 12 0 2 0;
#X connect 13 0 18 0;
#X connect 14 0 21 0;
#X connect 14 1 21 1;
#X connect 14 2 21 2;
#X connect 14 3 21 3;
#X connect 15 0 19 1;
#X connect 16 0 14 0;
#X connect 17 0 0 0;
#X connect 17 0 1 0;
#X connect 19 0 12 0;
#X connect 20 0 2 0;
#X connect 21 0 20 0;
#X connect 22 0 13 0;
#X connect 23 0 22 0;
