#N canvas 75 424 429 300 12;
#X obj 94 48 adc~ 2;
#X obj 125 162 ../../externals/bitcrush~;
#X obj 70 111 ../../externals/decimate~;
#X obj 173 -49 vsl 15 128 0 1 0 0 empty empty empty 0 -9 0 10 -262144
-1 -1 0 1;
#X floatatom 223 18 5 0 0 0 - - -;
#X obj 68 229 dac~;
#X connect 0 0 2 0;
#X connect 0 0 1 0;
#X connect 1 0 5 0;
#X connect 1 0 5 1;
#X connect 3 0 2 1;
#X connect 3 0 1 2;
#X connect 4 0 1 1;
